<svg xmlns="http://www.w3.org/2000/svg" xmlns:xlink="http://www.w3.org/1999/xlink" width="500" zoomAndPan="magnify" viewBox="0 0 375 374.999991" height="500" preserveAspectRatio="xMidYMid meet" version="1.0"><defs><filter x="0%" y="0%" width="100%" height="100%" id="d33e858b07"><feColorMatrix values="0 0 0 0 1 0 0 0 0 1 0 0 0 0 1 0 0 0 1 0" color-interpolation-filters="sRGB"/></filter><mask id="30e24f5730"><g filter="url(#d33e858b07)"><rect x="-37.5" width="450" fill="#000000" y="-37.499999" height="449.999989" fill-opacity="0.698"/></g></mask><clipPath id="d1965882bf"><path d="M 0.078125 0.398438 L 41.359375 0.398438 L 41.359375 31 L 0.078125 31 Z M 0.078125 0.398438 " clip-rule="nonzero"/></clipPath><clipPath id="cf189b7158"><rect x="0" width="42" y="0" height="32"/></clipPath><mask id="2a624c7279"><g filter="url(#d33e858b07)"><rect x="-37.5" width="450" fill="#000000" y="-37.499999" height="449.999989" fill-opacity="0.698"/></g></mask><clipPath id="31cd2d300d"><path d="M 0.640625 0.238281 L 87.519531 0.238281 L 87.519531 30.71875 L 0.640625 30.71875 Z M 0.640625 0.238281 " clip-rule="nonzero"/></clipPath><clipPath id="4b8ef6a537"><rect x="0" width="88" y="0" height="31"/></clipPath><mask id="5936887d87"><g filter="url(#d33e858b07)"><rect x="-37.5" width="450" fill="#000000" y="-37.499999" height="449.999989" fill-opacity="0.698"/></g></mask><clipPath id="7e6bddd577"><path d="M 1 1 L 59 1 L 59 31.519531 L 1 31.519531 Z M 1 1 " clip-rule="nonzero"/></clipPath><clipPath id="9cb8d0e08b"><rect x="0" width="60" y="0" height="32"/></clipPath><mask id="0f131b8065"><g filter="url(#d33e858b07)"><rect x="-37.5" width="450" fill="#000000" y="-37.499999" height="449.999989" fill-opacity="0.698"/></g></mask><clipPath id="fd170a5337"><path d="M 0.320312 0.601562 L 58.878906 0.601562 L 58.878906 31.558594 L 0.320312 31.558594 Z M 0.320312 0.601562 " clip-rule="nonzero"/></clipPath><clipPath id="727ff207ad"><rect x="0" width="59" y="0" height="32"/></clipPath><mask id="a95155dedf"><g filter="url(#d33e858b07)"><rect x="-37.5" width="450" fill="#000000" y="-37.499999" height="449.999989" fill-opacity="0.8"/></g></mask><clipPath id="35420d4538"><path d="M 1 1 L 59.480469 1 L 59.480469 31.519531 L 1 31.519531 Z M 1 1 " clip-rule="nonzero"/></clipPath><clipPath id="4782a62a05"><rect x="0" width="60" y="0" height="32"/></clipPath><mask id="a5ecdcccab"><g filter="url(#d33e858b07)"><rect x="-37.5" width="450" fill="#000000" y="-37.499999" height="449.999989" fill-opacity="0.8"/></g></mask><clipPath id="e07931b552"><path d="M 0.398438 1 L 39 1 L 39 31.519531 L 0.398438 31.519531 Z M 0.398438 1 " clip-rule="nonzero"/></clipPath><clipPath id="6b41f4d633"><rect x="0" width="40" y="0" height="32"/></clipPath><mask id="7201095681"><g filter="url(#d33e858b07)"><rect x="-37.5" width="450" fill="#000000" y="-37.499999" height="449.999989" fill-opacity="0.8"/></g></mask><clipPath id="b3f320c6d6"><path d="M 0.398438 0.398438 L 54.160156 0.398438 L 54.160156 31 L 0.398438 31 Z M 0.398438 0.398438 " clip-rule="nonzero"/></clipPath><clipPath id="a553f88644"><rect x="0" width="55" y="0" height="32"/></clipPath><mask id="33e6f1caf1"><g filter="url(#d33e858b07)"><rect x="-37.5" width="450" fill="#000000" y="-37.499999" height="449.999989" fill-opacity="0.8"/></g></mask><clipPath id="2d3f2b99da"><path d="M 1 0.398438 L 41.878906 0.398438 L 41.878906 31 L 1 31 Z M 1 0.398438 " clip-rule="nonzero"/></clipPath><clipPath id="973bdb66b1"><rect x="0" width="42" y="0" height="32"/></clipPath><mask id="1a80c48e4a"><g filter="url(#d33e858b07)"><rect x="-37.5" width="450" fill="#000000" y="-37.499999" height="449.999989" fill-opacity="0.698"/></g></mask><clipPath id="9f35bc6df8"><path d="M 0.199219 0.121094 L 47.960938 0.121094 L 47.960938 34.921875 L 0.199219 34.921875 Z M 0.199219 0.121094 " clip-rule="nonzero"/></clipPath><clipPath id="0d7e01b9d4"><rect x="0" width="48" y="0" height="35"/></clipPath><mask id="4507cae959"><g filter="url(#d33e858b07)"><rect x="-37.5" width="450" fill="#000000" y="-37.499999" height="449.999989" fill-opacity="0.8"/></g></mask><clipPath id="e9a0df9dd7"><path d="M 0.121094 0.121094 L 50.519531 0.121094 L 50.519531 34.921875 L 0.121094 34.921875 Z M 0.121094 0.121094 " clip-rule="nonzero"/></clipPath><clipPath id="ad50f6c8ae"><rect x="0" width="51" y="0" height="35"/></clipPath><mask id="5ec2b65961"><g filter="url(#d33e858b07)"><rect x="-37.5" width="450" fill="#000000" y="-37.499999" height="449.999989" fill-opacity="0.8"/></g></mask><clipPath id="7403f01aba"><path d="M 0.320312 0.601562 L 33 0.601562 L 33 31.320312 L 0.320312 31.320312 Z M 0.320312 0.601562 " clip-rule="nonzero"/></clipPath><clipPath id="285bdcdad6"><rect x="0" width="34" y="0" height="32"/></clipPath><mask id="44d28d6d73"><g filter="url(#d33e858b07)"><rect x="-37.5" width="450" fill="#000000" y="-37.499999" height="449.999989" fill-opacity="0.698"/></g></mask><clipPath id="db8866b75d"><path d="M 0.0390625 0.398438 L 50.441406 0.398438 L 50.441406 31 L 0.0390625 31 Z M 0.0390625 0.398438 " clip-rule="nonzero"/></clipPath><clipPath id="fd3a064053"><rect x="0" width="51" y="0" height="32"/></clipPath><mask id="637de535ff"><g filter="url(#d33e858b07)"><rect x="-37.5" width="450" fill="#000000" y="-37.499999" height="449.999989" fill-opacity="0.8"/></g></mask><clipPath id="ea639c4cfc"><path d="M 0.199219 0.238281 L 84.199219 0.238281 L 84.199219 30.71875 L 0.199219 30.71875 Z M 0.199219 0.238281 " clip-rule="nonzero"/></clipPath><clipPath id="5011732464"><rect x="0" width="85" y="0" height="31"/></clipPath><mask id="36bf045301"><g filter="url(#d33e858b07)"><rect x="-37.5" width="450" fill="#000000" y="-37.499999" height="449.999989" fill-opacity="0.8"/></g></mask><clipPath id="ad78f3f7cf"><path d="M 0.160156 1 L 35.679688 1 L 35.679688 31.519531 L 0.160156 31.519531 Z M 0.160156 1 " clip-rule="nonzero"/></clipPath><clipPath id="8b76bfb0fa"><rect x="0" width="36" y="0" height="32"/></clipPath><mask id="c7a7b394f6"><g filter="url(#d33e858b07)"><rect x="-37.5" width="450" fill="#000000" y="-37.499999" height="449.999989" fill-opacity="0.8"/></g></mask><clipPath id="e08911944d"><path d="M 1 0.601562 L 36.878906 0.601562 L 36.878906 31.320312 L 1 31.320312 Z M 1 0.601562 " clip-rule="nonzero"/></clipPath><clipPath id="7bae21042d"><rect x="0" width="37" y="0" height="32"/></clipPath><mask id="ba02a603a9"><g filter="url(#d33e858b07)"><rect x="-37.5" width="450" fill="#000000" y="-37.499999" height="449.999989" fill-opacity="0.4"/></g></mask><clipPath id="2bd66788b4"><path d="M 0.320312 0.679688 L 35.359375 0.679688 L 35.359375 53.71875 L 0.320312 53.71875 Z M 0.320312 0.679688 " clip-rule="nonzero"/></clipPath><clipPath id="6cfbf524b9"><rect x="0" width="36" y="0" height="54"/></clipPath><mask id="238c8ce59c"><g filter="url(#d33e858b07)"><rect x="-37.5" width="450" fill="#000000" y="-37.499999" height="449.999989" fill-opacity="0.4"/></g></mask><clipPath id="beefdef2a7"><path d="M 1 0.480469 L 35.601562 0.480469 L 35.601562 53.519531 L 1 53.519531 Z M 1 0.480469 " clip-rule="nonzero"/></clipPath><clipPath id="428646937a"><rect x="0" width="36" y="0" height="54"/></clipPath><mask id="d65e93fda8"><g filter="url(#d33e858b07)"><rect x="-37.5" width="450" fill="#000000" y="-37.499999" height="449.999989" fill-opacity="0.4"/></g></mask><clipPath id="09e2cd7335"><path d="M 0.558594 0.320312 L 35.359375 0.320312 L 35.359375 53 L 0.558594 53 Z M 0.558594 0.320312 " clip-rule="nonzero"/></clipPath><clipPath id="d48d63ef2d"><rect x="0" width="36" y="0" height="54"/></clipPath><mask id="50dfae3efe"><g filter="url(#d33e858b07)"><rect x="-37.5" width="450" fill="#000000" y="-37.499999" height="449.999989" fill-opacity="0.4"/></g></mask><clipPath id="c6ecd17496"><path d="M 0.160156 1 L 37 1 L 37 60.921875 L 0.160156 60.921875 Z M 0.160156 1 " clip-rule="nonzero"/></clipPath><clipPath id="ac9977f079"><rect x="0" width="38" y="0" height="61"/></clipPath><mask id="d02f76eb8e"><g filter="url(#d33e858b07)"><rect x="-37.5" width="450" fill="#000000" y="-37.499999" height="449.999989" fill-opacity="0.2"/></g></mask><clipPath id="df561f301c"><path d="M 0.199219 1 L 53 1 L 53 26.839844 L 0.199219 26.839844 Z M 0.199219 1 " clip-rule="nonzero"/></clipPath><clipPath id="511ab2365e"><rect x="0" width="53" y="0" height="27"/></clipPath><mask id="88a88229f7"><g filter="url(#d33e858b07)"><rect x="-37.5" width="450" fill="#000000" y="-37.499999" height="449.999989" fill-opacity="0.2"/></g></mask><clipPath id="e08318aa61"><path d="M 0.078125 1 L 56 1 L 56 26.839844 L 0.078125 26.839844 Z M 0.078125 1 " clip-rule="nonzero"/></clipPath><clipPath id="8f8ea6b83f"><rect x="0" width="56" y="0" height="27"/></clipPath><mask id="24fd88f2e9"><g filter="url(#d33e858b07)"><rect x="-37.5" width="450" fill="#000000" y="-37.499999" height="449.999989" fill-opacity="0.4"/></g></mask><clipPath id="d03a52f288"><path d="M 0.320312 0.0390625 L 35.359375 0.0390625 L 35.359375 53.320312 L 0.320312 53.320312 Z M 0.320312 0.0390625 " clip-rule="nonzero"/></clipPath><clipPath id="bfd67e3463"><rect x="0" width="36" y="0" height="54"/></clipPath><mask id="a4cebc0beb"><g filter="url(#d33e858b07)"><rect x="-37.5" width="450" fill="#000000" y="-37.499999" height="449.999989" fill-opacity="0.4"/></g></mask><clipPath id="14e851dbc0"><path d="M 0.238281 0.679688 L 35.519531 0.679688 L 35.519531 53.71875 L 0.238281 53.71875 Z M 0.238281 0.679688 " clip-rule="nonzero"/></clipPath><clipPath id="7fe4f1dbec"><rect x="0" width="36" y="0" height="54"/></clipPath><mask id="443bf51eb2"><g filter="url(#d33e858b07)"><rect x="-37.5" width="450" fill="#000000" y="-37.499999" height="449.999989" fill-opacity="0.4"/></g></mask><clipPath id="6c98a56381"><path d="M 0.238281 0.480469 L 35 0.480469 L 35 53.519531 L 0.238281 53.519531 Z M 0.238281 0.480469 " clip-rule="nonzero"/></clipPath><clipPath id="68af1dbdfb"><rect x="0" width="36" y="0" height="54"/></clipPath><mask id="45226f3f73"><g filter="url(#d33e858b07)"><rect x="-37.5" width="450" fill="#000000" y="-37.499999" height="449.999989" fill-opacity="0.4"/></g></mask><clipPath id="a5e5113dd6"><path d="M 0.480469 0.320312 L 35.28125 0.320312 L 35.28125 53 L 0.480469 53 Z M 0.480469 0.320312 " clip-rule="nonzero"/></clipPath><clipPath id="7aa7d93c49"><rect x="0" width="36" y="0" height="54"/></clipPath><mask id="34a7046fe5"><g filter="url(#d33e858b07)"><rect x="-37.5" width="450" fill="#000000" y="-37.499999" height="449.999989" fill-opacity="0.4"/></g></mask><clipPath id="7e7890fe1f"><path d="M 1 1 L 37.679688 1 L 37.679688 60.921875 L 1 60.921875 Z M 1 1 " clip-rule="nonzero"/></clipPath><clipPath id="59bb803f35"><rect x="0" width="38" y="0" height="61"/></clipPath><mask id="1705ecd465"><g filter="url(#d33e858b07)"><rect x="-37.5" width="450" fill="#000000" y="-37.499999" height="449.999989" fill-opacity="0.4"/></g></mask><clipPath id="a2d8f7e0c6"><path d="M 0.480469 0.0390625 L 35.761719 0.0390625 L 35.761719 53.320312 L 0.480469 53.320312 Z M 0.480469 0.0390625 " clip-rule="nonzero"/></clipPath><clipPath id="0398f82056"><rect x="0" width="36" y="0" height="54"/></clipPath></defs><g mask="url(#30e24f5730)"><g transform="matrix(1, 0, 0, 1, 202, 212)"><g clip-path="url(#cf189b7158)"><g clip-path="url(#d1965882bf)"><path fill="#00bf63" d="M 16.992188 30.839844 L 36.792969 30.839844 C 37.074219 30.839844 37.351562 30.8125 37.625 30.757812 C 37.902344 30.703125 38.171875 30.621094 38.429688 30.515625 C 38.691406 30.40625 38.9375 30.273438 39.171875 30.117188 C 39.402344 29.960938 39.621094 29.785156 39.820312 29.585938 C 40.015625 29.386719 40.195312 29.171875 40.351562 28.9375 C 40.507812 28.703125 40.640625 28.457031 40.746094 28.195312 C 40.855469 27.9375 40.933594 27.667969 40.988281 27.394531 C 41.046875 27.117188 41.074219 26.839844 41.074219 26.558594 L 41.074219 4.996094 C 41.074219 4.714844 41.046875 4.4375 40.988281 4.160156 C 40.933594 3.882812 40.855469 3.617188 40.746094 3.355469 C 40.640625 3.097656 40.507812 2.851562 40.351562 2.617188 C 40.195312 2.382812 40.015625 2.167969 39.820312 1.96875 C 39.621094 1.769531 39.402344 1.589844 39.171875 1.433594 C 38.9375 1.277344 38.691406 1.148438 38.429688 1.039062 C 38.171875 0.933594 37.902344 0.851562 37.628906 0.796875 C 37.351562 0.742188 37.074219 0.714844 36.792969 0.714844 L 4.910156 0.714844 C 4.527344 0.710938 4.148438 0.757812 3.777344 0.851562 C 3.40625 0.945312 3.050781 1.082031 2.714844 1.261719 C 2.375 1.441406 2.066406 1.660156 1.78125 1.917969 C 1.5 2.175781 1.25 2.464844 1.039062 2.785156 C 0.828125 3.101562 0.65625 3.441406 0.53125 3.804688 C 0.402344 4.164062 0.320312 4.535156 0.285156 4.917969 C 0.25 5.300781 0.257812 5.679688 0.316406 6.058594 C 0.375 6.4375 0.480469 6.800781 0.628906 7.15625 L 8.234375 25.054688 C 8.597656 25.914062 9.078125 26.703125 9.675781 27.421875 C 10.273438 28.136719 10.960938 28.753906 11.742188 29.269531 C 12.519531 29.78125 13.355469 30.175781 14.25 30.441406 C 15.144531 30.710938 16.058594 30.84375 16.992188 30.839844 Z M 16.992188 30.839844 " fill-opacity="1" fill-rule="nonzero"/></g></g></g></g><g mask="url(#2a624c7279)"><g transform="matrix(1, 0, 0, 1, 104, 174)"><g clip-path="url(#4b8ef6a537)"><g clip-path="url(#31cd2d300d)"><path fill="#00bf63" d="M 0.980469 30.460938 L 83.0625 30.460938 C 83.34375 30.460938 83.625 30.433594 83.898438 30.378906 C 84.175781 30.324219 84.441406 30.246094 84.703125 30.136719 C 84.960938 30.027344 85.207031 29.898438 85.441406 29.742188 C 85.675781 29.585938 85.890625 29.40625 86.089844 29.207031 C 86.289062 29.007812 86.46875 28.792969 86.625 28.558594 C 86.78125 28.324219 86.910156 28.078125 87.019531 27.820312 C 87.125 27.558594 87.207031 27.292969 87.261719 27.015625 C 87.316406 26.738281 87.34375 26.460938 87.34375 26.179688 L 87.34375 4.625 C 87.34375 4.34375 87.316406 4.066406 87.261719 3.789062 C 87.207031 3.515625 87.125 3.246094 87.019531 2.984375 C 86.910156 2.726562 86.78125 2.480469 86.625 2.246094 C 86.46875 2.011719 86.289062 1.796875 86.089844 1.597656 C 85.890625 1.398438 85.675781 1.21875 85.441406 1.0625 C 85.207031 0.90625 84.960938 0.777344 84.703125 0.667969 C 84.441406 0.5625 84.175781 0.480469 83.898438 0.425781 C 83.625 0.371094 83.34375 0.34375 83.0625 0.34375 L 15.214844 0.34375 Z M 0.980469 30.460938 " fill-opacity="1" fill-rule="nonzero"/></g></g></g></g><g mask="url(#5936887d87)"><g transform="matrix(1, 0, 0, 1, 114, 250)"><g clip-path="url(#9cb8d0e08b)"><g clip-path="url(#7e6bddd577)"><path fill="#00bf63" d="M 1.132812 5.371094 L 1.132812 26.929688 C 1.132812 27.210938 1.160156 27.488281 1.214844 27.765625 C 1.269531 28.039062 1.351562 28.308594 1.457031 28.566406 C 1.566406 28.828125 1.695312 29.074219 1.851562 29.308594 C 2.007812 29.542969 2.1875 29.757812 2.386719 29.957031 C 2.585938 30.15625 2.800781 30.332031 3.035156 30.488281 C 3.269531 30.644531 3.515625 30.777344 3.773438 30.886719 C 4.035156 30.992188 4.300781 31.074219 4.578125 31.128906 C 4.851562 31.183594 5.132812 31.210938 5.414062 31.210938 L 43.332031 31.210938 C 44.019531 31.210938 44.691406 31.109375 45.347656 30.910156 C 46.003906 30.710938 46.617188 30.421875 47.1875 30.039062 C 47.757812 29.660156 48.261719 29.203125 48.699219 28.675781 C 49.136719 28.144531 49.488281 27.5625 49.753906 26.929688 L 58.355469 6.5 C 58.480469 6.199219 58.566406 5.894531 58.613281 5.574219 C 58.660156 5.253906 58.667969 4.9375 58.640625 4.617188 C 58.609375 4.296875 58.539062 3.984375 58.429688 3.679688 C 58.324219 3.375 58.179688 3.089844 58.003906 2.820312 C 57.824219 2.554688 57.617188 2.308594 57.378906 2.09375 C 57.140625 1.875 56.878906 1.691406 56.597656 1.539062 C 56.3125 1.386719 56.015625 1.269531 55.703125 1.1875 C 55.390625 1.109375 55.074219 1.066406 54.753906 1.066406 L 5.414062 1.066406 C 5.132812 1.066406 4.855469 1.09375 4.578125 1.148438 C 4.300781 1.203125 4.03125 1.285156 3.773438 1.394531 C 3.511719 1.5 3.265625 1.632812 3.03125 1.792969 C 2.796875 1.949219 2.578125 2.128906 2.378906 2.328125 C 2.179688 2.527344 2.003906 2.746094 1.847656 2.980469 C 1.691406 3.214844 1.558594 3.464844 1.453125 3.722656 C 1.34375 3.984375 1.265625 4.253906 1.210938 4.53125 C 1.15625 4.808594 1.128906 5.089844 1.132812 5.371094 Z M 1.132812 5.371094 " fill-opacity="1" fill-rule="nonzero"/></g></g></g></g><g mask="url(#0f131b8065)"><g transform="matrix(1, 0, 0, 1, 166, 135)"><g clip-path="url(#727ff207ad)"><g clip-path="url(#fd170a5337)"><path fill="#00bf63" d="M 5.148438 0.960938 L 54.214844 0.960938 C 54.496094 0.960938 54.773438 0.988281 55.050781 1.042969 C 55.324219 1.097656 55.59375 1.179688 55.851562 1.289062 C 56.113281 1.394531 56.359375 1.527344 56.59375 1.683594 C 56.828125 1.839844 57.042969 2.015625 57.242188 2.214844 C 57.441406 2.414062 57.621094 2.632812 57.777344 2.867188 C 57.933594 3.101562 58.0625 3.347656 58.171875 3.605469 C 58.28125 3.867188 58.359375 4.132812 58.414062 4.410156 C 58.46875 4.6875 58.5 4.964844 58.5 5.246094 L 58.5 26.800781 C 58.5 27.082031 58.46875 27.363281 58.414062 27.636719 C 58.359375 27.914062 58.28125 28.183594 58.171875 28.441406 C 58.0625 28.703125 57.933594 28.949219 57.777344 29.183594 C 57.621094 29.417969 57.441406 29.632812 57.242188 29.832031 C 57.042969 30.03125 56.828125 30.210938 56.59375 30.367188 C 56.359375 30.523438 56.113281 30.652344 55.851562 30.761719 C 55.59375 30.871094 55.324219 30.949219 55.050781 31.003906 C 54.773438 31.0625 54.496094 31.089844 54.214844 31.089844 L 5.148438 31.089844 C 4.867188 31.089844 4.585938 31.0625 4.3125 31.003906 C 4.035156 30.949219 3.769531 30.871094 3.507812 30.761719 C 3.246094 30.652344 3 30.523438 2.765625 30.367188 C 2.535156 30.210938 2.316406 30.03125 2.117188 29.832031 C 1.917969 29.632812 1.742188 29.417969 1.585938 29.183594 C 1.429688 28.949219 1.296875 28.703125 1.1875 28.441406 C 1.082031 28.183594 1 27.914062 0.945312 27.636719 C 0.890625 27.363281 0.863281 27.082031 0.863281 26.800781 L 0.863281 5.246094 C 0.863281 4.964844 0.890625 4.6875 0.945312 4.410156 C 1 4.132812 1.082031 3.867188 1.1875 3.605469 C 1.296875 3.347656 1.429688 3.101562 1.585938 2.867188 C 1.742188 2.632812 1.917969 2.414062 2.117188 2.214844 C 2.316406 2.015625 2.53125 1.839844 2.765625 1.683594 C 3 1.527344 3.246094 1.394531 3.507812 1.289062 C 3.769531 1.179688 4.035156 1.097656 4.3125 1.042969 C 4.585938 0.988281 4.867188 0.960938 5.148438 0.960938 Z M 5.148438 0.960938 " fill-opacity="1" fill-rule="nonzero"/></g></g></g></g><g mask="url(#a95155dedf)"><g transform="matrix(1, 0, 0, 1, 217, 250)"><g clip-path="url(#4782a62a05)"><g clip-path="url(#35420d4538)"><path fill="#00bf63" d="M 16.617188 31.214844 L 54.941406 31.214844 C 55.222656 31.214844 55.5 31.1875 55.777344 31.132812 C 56.050781 31.078125 56.320312 30.996094 56.578125 30.890625 C 56.839844 30.78125 57.085938 30.648438 57.320312 30.492188 C 57.554688 30.335938 57.769531 30.160156 57.96875 29.960938 C 58.167969 29.761719 58.34375 29.546875 58.5 29.3125 C 58.65625 29.078125 58.789062 28.832031 58.898438 28.570312 C 59.003906 28.3125 59.085938 28.042969 59.140625 27.769531 C 59.195312 27.492188 59.222656 27.214844 59.222656 26.933594 L 59.222656 5.371094 C 59.222656 5.089844 59.195312 4.8125 59.140625 4.535156 C 59.085938 4.257812 59.003906 3.992188 58.898438 3.730469 C 58.789062 3.472656 58.65625 3.226562 58.5 2.992188 C 58.34375 2.757812 58.167969 2.542969 57.96875 2.34375 C 57.769531 2.144531 57.554688 1.964844 57.320312 1.808594 C 57.085938 1.652344 56.839844 1.523438 56.578125 1.414062 C 56.320312 1.304688 56.050781 1.226562 55.777344 1.171875 C 55.5 1.117188 55.222656 1.089844 54.941406 1.089844 L 5.121094 1.089844 C 4.800781 1.089844 4.484375 1.128906 4.171875 1.210938 C 3.859375 1.289062 3.558594 1.40625 3.277344 1.558594 C 2.992188 1.714844 2.730469 1.898438 2.492188 2.117188 C 2.253906 2.335938 2.046875 2.578125 1.871094 2.847656 C 1.691406 3.117188 1.550781 3.402344 1.441406 3.707031 C 1.335938 4.011719 1.265625 4.324219 1.234375 4.644531 C 1.207031 4.964844 1.214844 5.285156 1.261719 5.605469 C 1.3125 5.925781 1.398438 6.234375 1.523438 6.53125 L 10.203125 26.96875 C 10.46875 27.597656 10.820312 28.175781 11.257812 28.703125 C 11.695312 29.226562 12.199219 29.679688 12.769531 30.058594 C 13.339844 30.433594 13.953125 30.722656 14.609375 30.917969 C 15.261719 31.117188 15.933594 31.214844 16.617188 31.214844 Z M 16.617188 31.214844 " fill-opacity="1" fill-rule="nonzero"/></g></g></g></g><g mask="url(#a5ecdcccab)"><g transform="matrix(1, 0, 0, 1, 68, 250)"><g clip-path="url(#6b41f4d633)"><g clip-path="url(#e07931b552)"><path fill="#00bf63" d="M 34.605469 1.089844 L 14.945312 1.089844 L 0.707031 31.214844 L 34.597656 31.214844 C 34.878906 31.214844 35.15625 31.1875 35.433594 31.132812 C 35.707031 31.078125 35.976562 30.996094 36.234375 30.890625 C 36.496094 30.78125 36.742188 30.648438 36.976562 30.492188 C 37.207031 30.335938 37.425781 30.160156 37.625 29.960938 C 37.820312 29.761719 38 29.546875 38.15625 29.3125 C 38.3125 29.078125 38.445312 28.832031 38.550781 28.570312 C 38.660156 28.3125 38.738281 28.042969 38.796875 27.769531 C 38.851562 27.492188 38.878906 27.214844 38.878906 26.933594 L 38.878906 5.371094 C 38.878906 5.089844 38.851562 4.8125 38.796875 4.535156 C 38.742188 4.261719 38.660156 3.992188 38.550781 3.734375 C 38.445312 3.472656 38.3125 3.226562 38.15625 2.992188 C 38 2.761719 37.824219 2.542969 37.625 2.34375 C 37.425781 2.144531 37.210938 1.96875 36.980469 1.8125 C 36.746094 1.65625 36.5 1.523438 36.238281 1.417969 C 35.980469 1.308594 35.714844 1.226562 35.4375 1.171875 C 35.164062 1.117188 34.882812 1.089844 34.605469 1.089844 Z M 34.605469 1.089844 " fill-opacity="1" fill-rule="nonzero"/></g></g></g></g><g mask="url(#7201095681)"><g transform="matrix(1, 0, 0, 1, 86, 212)"><g clip-path="url(#a553f88644)"><g clip-path="url(#b3f320c6d6)"><path fill="#00bf63" d="M 49.753906 0.710938 L 15.085938 0.710938 L 0.84375 30.839844 L 49.753906 30.839844 C 50.035156 30.839844 50.3125 30.8125 50.589844 30.757812 C 50.863281 30.703125 51.132812 30.621094 51.390625 30.515625 C 51.652344 30.40625 51.898438 30.273438 52.132812 30.117188 C 52.367188 29.960938 52.582031 29.785156 52.78125 29.585938 C 52.980469 29.386719 53.15625 29.171875 53.3125 28.9375 C 53.46875 28.703125 53.601562 28.457031 53.707031 28.195312 C 53.816406 27.9375 53.898438 27.667969 53.953125 27.394531 C 54.007812 27.117188 54.035156 26.839844 54.035156 26.558594 L 54.035156 4.996094 C 54.035156 4.714844 54.007812 4.4375 53.953125 4.160156 C 53.898438 3.882812 53.816406 3.617188 53.710938 3.355469 C 53.601562 3.097656 53.46875 2.847656 53.3125 2.613281 C 53.15625 2.382812 52.980469 2.164062 52.78125 1.964844 C 52.582031 1.765625 52.367188 1.589844 52.132812 1.433594 C 51.898438 1.277344 51.652344 1.144531 51.394531 1.035156 C 51.132812 0.929688 50.863281 0.847656 50.589844 0.792969 C 50.3125 0.738281 50.035156 0.710938 49.753906 0.710938 Z M 49.753906 0.710938 " fill-opacity="1" fill-rule="nonzero"/></g></g></g></g><g mask="url(#33e6f1caf1)"><g transform="matrix(1, 0, 0, 1, 147, 212)"><g clip-path="url(#973bdb66b1)"><g clip-path="url(#2d3f2b99da)"><path fill="#00bf63" d="M 1.28125 4.996094 L 1.28125 26.554688 C 1.28125 26.835938 1.308594 27.113281 1.363281 27.390625 C 1.417969 27.664062 1.5 27.933594 1.609375 28.195312 C 1.714844 28.453125 1.847656 28.699219 2.003906 28.933594 C 2.160156 29.167969 2.335938 29.382812 2.535156 29.582031 C 2.734375 29.78125 2.949219 29.960938 3.183594 30.117188 C 3.417969 30.273438 3.664062 30.402344 3.925781 30.511719 C 4.183594 30.617188 4.453125 30.699219 4.726562 30.753906 C 5.003906 30.808594 5.28125 30.835938 5.5625 30.835938 L 24.824219 30.835938 C 25.757812 30.835938 26.671875 30.703125 27.566406 30.433594 C 28.460938 30.160156 29.296875 29.769531 30.078125 29.25 C 30.855469 28.734375 31.542969 28.117188 32.136719 27.394531 C 32.734375 26.675781 33.210938 25.886719 33.574219 25.023438 L 41.113281 7.136719 C 41.257812 6.785156 41.363281 6.417969 41.417969 6.042969 C 41.476562 5.664062 41.484375 5.285156 41.449219 4.90625 C 41.410156 4.523438 41.328125 4.15625 41.199219 3.796875 C 41.074219 3.4375 40.902344 3.097656 40.691406 2.78125 C 40.480469 2.460938 40.230469 2.175781 39.949219 1.917969 C 39.667969 1.660156 39.355469 1.441406 39.019531 1.261719 C 38.683594 1.082031 38.332031 0.945312 37.960938 0.851562 C 37.589844 0.761719 37.214844 0.714844 36.832031 0.714844 L 5.566406 0.714844 C 5.285156 0.714844 5.007812 0.742188 4.730469 0.796875 C 4.453125 0.851562 4.1875 0.929688 3.925781 1.039062 C 3.667969 1.144531 3.417969 1.277344 3.1875 1.433594 C 2.953125 1.589844 2.734375 1.769531 2.535156 1.964844 C 2.335938 2.164062 2.160156 2.382812 2.003906 2.617188 C 1.847656 2.847656 1.714844 3.097656 1.609375 3.355469 C 1.5 3.617188 1.417969 3.882812 1.363281 4.160156 C 1.308594 4.4375 1.28125 4.714844 1.28125 4.996094 Z M 1.28125 4.996094 " fill-opacity="1" fill-rule="nonzero"/></g></g></g></g><g mask="url(#1a80c48e4a)"><g transform="matrix(1, 0, 0, 1, 199, 93)"><g clip-path="url(#0d7e01b9d4)"><g clip-path="url(#9f35bc6df8)"><path fill="#00bf63" d="M 0.59375 0.460938 L 0.59375 30.4375 C 0.59375 30.71875 0.621094 30.996094 0.675781 31.273438 C 0.730469 31.550781 0.808594 31.816406 0.917969 32.078125 C 1.027344 32.335938 1.15625 32.582031 1.3125 32.816406 C 1.46875 33.050781 1.648438 33.269531 1.847656 33.464844 C 2.042969 33.664062 2.261719 33.84375 2.496094 34 C 2.726562 34.15625 2.976562 34.289062 3.234375 34.394531 C 3.496094 34.503906 3.761719 34.582031 4.039062 34.636719 C 4.3125 34.691406 4.589844 34.722656 4.871094 34.722656 L 47.730469 34.722656 L 31.542969 0.460938 Z M 0.59375 0.460938 " fill-opacity="1" fill-rule="nonzero"/></g></g></g></g><g mask="url(#4507cae959)"><g transform="matrix(1, 0, 0, 1, 141, 93)"><g clip-path="url(#ad50f6c8ae)"><g clip-path="url(#e9a0df9dd7)"><path fill="#00bf63" d="M 50.347656 30.425781 L 50.347656 0.449219 L 16.4375 0.449219 L 0.25 34.710938 L 46.0625 34.710938 C 46.34375 34.710938 46.625 34.683594 46.898438 34.628906 C 47.175781 34.574219 47.445312 34.492188 47.703125 34.386719 C 47.964844 34.277344 48.210938 34.144531 48.445312 33.988281 C 48.679688 33.832031 48.894531 33.65625 49.09375 33.457031 C 49.292969 33.257812 49.46875 33.042969 49.625 32.808594 C 49.78125 32.574219 49.914062 32.328125 50.023438 32.066406 C 50.128906 31.808594 50.210938 31.539062 50.265625 31.261719 C 50.320312 30.988281 50.347656 30.707031 50.347656 30.425781 Z M 50.347656 30.425781 " fill-opacity="1" fill-rule="nonzero"/></g></g></g></g><g mask="url(#5ec2b65961)"><g transform="matrix(1, 0, 0, 1, 232, 135)"><g clip-path="url(#285bdcdad6)"><g clip-path="url(#7403f01aba)"><path fill="#00bf63" d="M 0.742188 5.246094 L 0.742188 26.796875 C 0.742188 27.078125 0.769531 27.359375 0.824219 27.632812 C 0.878906 27.910156 0.960938 28.175781 1.066406 28.4375 C 1.175781 28.695312 1.308594 28.945312 1.464844 29.175781 C 1.621094 29.410156 1.796875 29.628906 1.996094 29.828125 C 2.195312 30.027344 2.410156 30.203125 2.644531 30.359375 C 2.878906 30.515625 3.125 30.648438 3.382812 30.753906 C 3.644531 30.863281 3.910156 30.945312 4.1875 31 C 4.464844 31.054688 4.742188 31.082031 5.023438 31.082031 L 32.863281 31.082031 L 18.632812 0.960938 L 5.027344 0.960938 C 4.746094 0.960938 4.464844 0.988281 4.191406 1.042969 C 3.914062 1.097656 3.644531 1.179688 3.386719 1.285156 C 3.125 1.394531 2.878906 1.527344 2.644531 1.683594 C 2.410156 1.839844 2.195312 2.015625 1.996094 2.214844 C 1.796875 2.414062 1.617188 2.632812 1.460938 2.863281 C 1.304688 3.097656 1.175781 3.347656 1.066406 3.605469 C 0.960938 3.867188 0.878906 4.132812 0.824219 4.410156 C 0.769531 4.6875 0.742188 4.964844 0.742188 5.246094 Z M 0.742188 5.246094 " fill-opacity="1" fill-rule="nonzero"/></g></g></g></g><g mask="url(#44d28d6d73)"><g transform="matrix(1, 0, 0, 1, 251, 212)"><g clip-path="url(#fd3a064053)"><g clip-path="url(#db8866b75d)"><path fill="#00bf63" d="M 0.320312 4.996094 L 0.320312 26.554688 C 0.320312 26.835938 0.347656 27.113281 0.402344 27.390625 C 0.457031 27.664062 0.539062 27.933594 0.644531 28.195312 C 0.753906 28.453125 0.886719 28.699219 1.042969 28.933594 C 1.199219 29.167969 1.375 29.382812 1.574219 29.582031 C 1.773438 29.78125 1.988281 29.960938 2.222656 30.117188 C 2.457031 30.273438 2.703125 30.402344 2.960938 30.511719 C 3.222656 30.617188 3.488281 30.699219 3.765625 30.753906 C 4.039062 30.808594 4.320312 30.835938 4.601562 30.835938 L 50.140625 30.835938 L 35.898438 0.707031 L 4.601562 0.707031 C 4.320312 0.707031 4.039062 0.734375 3.765625 0.789062 C 3.488281 0.84375 3.21875 0.925781 2.960938 1.03125 C 2.699219 1.140625 2.453125 1.273438 2.21875 1.429688 C 1.984375 1.585938 1.769531 1.765625 1.570312 1.964844 C 1.371094 2.164062 1.195312 2.378906 1.039062 2.613281 C 0.882812 2.847656 0.75 3.09375 0.644531 3.355469 C 0.535156 3.613281 0.457031 3.882812 0.402344 4.160156 C 0.347656 4.4375 0.320312 4.714844 0.320312 4.996094 Z M 0.320312 4.996094 " fill-opacity="1" fill-rule="nonzero"/></g></g></g></g><g mask="url(#637de535ff)"><g transform="matrix(1, 0, 0, 1, 199, 174)"><g clip-path="url(#5011732464)"><g clip-path="url(#ea639c4cfc)"><path fill="#00bf63" d="M 0.59375 4.621094 L 0.59375 26.175781 C 0.59375 26.457031 0.621094 26.734375 0.675781 27.011719 C 0.730469 27.289062 0.808594 27.554688 0.917969 27.816406 C 1.027344 28.074219 1.15625 28.320312 1.3125 28.554688 C 1.46875 28.789062 1.648438 29.007812 1.847656 29.203125 C 2.042969 29.402344 2.261719 29.582031 2.496094 29.738281 C 2.726562 29.894531 2.976562 30.027344 3.234375 30.132812 C 3.496094 30.242188 3.761719 30.320312 4.039062 30.375 C 4.3125 30.429688 4.589844 30.460938 4.871094 30.460938 L 84.003906 30.460938 L 69.765625 0.332031 L 4.871094 0.332031 C 4.589844 0.332031 4.3125 0.359375 4.035156 0.414062 C 3.761719 0.46875 3.492188 0.550781 3.234375 0.660156 C 2.972656 0.765625 2.726562 0.898438 2.492188 1.054688 C 2.257812 1.210938 2.042969 1.390625 1.84375 1.589844 C 1.644531 1.789062 1.46875 2.003906 1.3125 2.238281 C 1.15625 2.472656 1.023438 2.71875 0.914062 2.980469 C 0.808594 3.242188 0.726562 3.507812 0.671875 3.785156 C 0.617188 4.0625 0.589844 4.339844 0.59375 4.621094 Z M 0.59375 4.621094 " fill-opacity="1" fill-rule="nonzero"/></g></g></g></g><g mask="url(#36bf045301)"><g transform="matrix(1, 0, 0, 1, 284, 250)"><g clip-path="url(#8b76bfb0fa)"><g clip-path="url(#ad78f3f7cf)"><path fill="#00bf63" d="M 0.46875 5.371094 L 0.46875 26.929688 C 0.46875 27.210938 0.496094 27.488281 0.550781 27.765625 C 0.605469 28.039062 0.6875 28.308594 0.796875 28.566406 C 0.902344 28.828125 1.035156 29.074219 1.191406 29.308594 C 1.347656 29.542969 1.523438 29.757812 1.722656 29.957031 C 1.921875 30.15625 2.136719 30.332031 2.371094 30.488281 C 2.605469 30.644531 2.851562 30.777344 3.113281 30.886719 C 3.371094 30.992188 3.640625 31.074219 3.914062 31.128906 C 4.191406 31.183594 4.46875 31.210938 4.75 31.210938 L 35.269531 31.210938 L 21.039062 1.089844 L 4.753906 1.089844 C 4.472656 1.085938 4.195312 1.113281 3.917969 1.167969 C 3.640625 1.222656 3.375 1.304688 3.113281 1.414062 C 2.855469 1.519531 2.609375 1.652344 2.375 1.808594 C 2.140625 1.964844 1.921875 2.140625 1.726562 2.339844 C 1.527344 2.539062 1.347656 2.757812 1.191406 2.988281 C 1.035156 3.222656 0.902344 3.472656 0.796875 3.730469 C 0.6875 3.992188 0.605469 4.257812 0.550781 4.535156 C 0.496094 4.808594 0.46875 5.089844 0.46875 5.371094 Z M 0.46875 5.371094 " fill-opacity="1" fill-rule="nonzero"/></g></g></g></g><g mask="url(#c7a7b394f6)"><g transform="matrix(1, 0, 0, 1, 122, 135)"><g clip-path="url(#7bae21042d)"><g clip-path="url(#e08911944d)"><path fill="#00bf63" d="M 1.113281 31.082031 L 32.335938 31.082031 C 32.617188 31.082031 32.894531 31.054688 33.171875 31 C 33.445312 30.945312 33.714844 30.863281 33.972656 30.753906 C 34.234375 30.648438 34.480469 30.515625 34.714844 30.359375 C 34.945312 30.203125 35.164062 30.027344 35.363281 29.828125 C 35.5625 29.628906 35.738281 29.410156 35.894531 29.175781 C 36.050781 28.945312 36.183594 28.695312 36.289062 28.4375 C 36.398438 28.175781 36.480469 27.910156 36.535156 27.632812 C 36.589844 27.359375 36.617188 27.078125 36.617188 26.796875 L 36.617188 5.242188 C 36.617188 4.960938 36.589844 4.683594 36.535156 4.40625 C 36.480469 4.132812 36.398438 3.863281 36.289062 3.605469 C 36.183594 3.34375 36.050781 3.097656 35.894531 2.863281 C 35.738281 2.628906 35.5625 2.414062 35.363281 2.214844 C 35.164062 2.015625 34.945312 1.839844 34.714844 1.683594 C 34.480469 1.527344 34.234375 1.394531 33.972656 1.285156 C 33.714844 1.179688 33.445312 1.097656 33.171875 1.042969 C 32.894531 0.988281 32.617188 0.960938 32.335938 0.960938 L 15.351562 0.960938 Z M 1.113281 31.082031 " fill-opacity="1" fill-rule="nonzero"/></g></g></g></g><g mask="url(#ba02a603a9)"><g transform="matrix(1, 0, 0, 1, 268, 151)"><g clip-path="url(#6cfbf524b9)"><g clip-path="url(#2bd66788b4)"><path fill="#00bf63" d="M 15.003906 53.460938 L 0.765625 23.335938 L 18.246094 2.28125 C 18.4375 2.046875 18.65625 1.84375 18.898438 1.664062 C 19.140625 1.488281 19.402344 1.34375 19.683594 1.230469 C 19.964844 1.121094 20.253906 1.046875 20.550781 1.007812 C 20.851562 0.96875 21.148438 0.96875 21.449219 1.007812 C 21.746094 1.046875 22.035156 1.121094 22.316406 1.230469 C 22.59375 1.339844 22.855469 1.484375 23.101562 1.664062 C 23.34375 1.839844 23.5625 2.046875 23.753906 2.277344 C 23.945312 2.511719 24.105469 2.761719 24.230469 3.035156 L 34.648438 25.078125 C 34.859375 25.527344 35.003906 25.996094 35.082031 26.488281 C 35.160156 26.980469 35.164062 27.472656 35.101562 27.964844 C 35.039062 28.457031 34.90625 28.933594 34.710938 29.386719 C 34.511719 29.84375 34.253906 30.261719 33.933594 30.644531 Z M 15.003906 53.460938 " fill-opacity="1" fill-rule="nonzero"/></g></g></g></g><g mask="url(#238c8ce59c)"><g transform="matrix(1, 0, 0, 1, 304, 228)"><g clip-path="url(#428646937a)"><g clip-path="url(#beefdef2a7)"><path fill="#00bf63" d="M 15.273438 53.214844 L 1.039062 23.089844 L 18.515625 2.03125 C 18.707031 1.800781 18.925781 1.59375 19.167969 1.417969 C 19.414062 1.238281 19.675781 1.09375 19.953125 0.980469 C 20.234375 0.871094 20.523438 0.796875 20.824219 0.757812 C 21.121094 0.71875 21.421875 0.71875 21.722656 0.757812 C 22.019531 0.792969 22.308594 0.871094 22.589844 0.980469 C 22.871094 1.09375 23.132812 1.238281 23.375 1.414062 C 23.617188 1.589844 23.835938 1.796875 24.027344 2.03125 C 24.21875 2.261719 24.378906 2.515625 24.507812 2.789062 L 34.691406 24.34375 C 34.9375 24.867188 35.105469 25.414062 35.195312 25.980469 C 35.289062 26.550781 35.296875 27.125 35.222656 27.695312 C 35.152344 28.269531 35 28.820312 34.769531 29.351562 C 34.542969 29.878906 34.242188 30.367188 33.875 30.8125 Z M 15.273438 53.214844 " fill-opacity="1" fill-rule="nonzero"/></g></g></g></g><g mask="url(#d65e93fda8)"><g transform="matrix(1, 0, 0, 1, 286, 190)"><g clip-path="url(#d48d63ef2d)"><g clip-path="url(#09e2cd7335)"><path fill="#00bf63" d="M 15.140625 52.839844 L 0.898438 22.710938 L 18.378906 1.65625 C 18.570312 1.421875 18.785156 1.214844 19.03125 1.039062 C 19.273438 0.863281 19.535156 0.71875 19.816406 0.605469 C 20.09375 0.496094 20.382812 0.421875 20.683594 0.382812 C 20.980469 0.34375 21.28125 0.34375 21.578125 0.382812 C 21.878906 0.417969 22.167969 0.492188 22.449219 0.605469 C 22.726562 0.714844 22.988281 0.859375 23.234375 1.039062 C 23.476562 1.214844 23.695312 1.421875 23.886719 1.652344 C 24.078125 1.886719 24.238281 2.136719 24.363281 2.410156 L 34.785156 24.453125 C 34.996094 24.90625 35.140625 25.375 35.21875 25.867188 C 35.296875 26.359375 35.300781 26.851562 35.238281 27.34375 C 35.175781 27.835938 35.042969 28.308594 34.847656 28.765625 C 34.648438 29.222656 34.386719 29.640625 34.070312 30.023438 Z M 15.140625 52.839844 " fill-opacity="1" fill-rule="nonzero"/></g></g></g></g><g mask="url(#50dfae3efe)"><g transform="matrix(1, 0, 0, 1, 230, 67)"><g clip-path="url(#ac9977f079)"><g clip-path="url(#c6ecd17496)"><path fill="#00bf63" d="M 0.542969 26.460938 L 21.628906 1.078125 L 36.40625 32.320312 C 36.617188 32.769531 36.761719 33.242188 36.839844 33.734375 C 36.917969 34.222656 36.921875 34.71875 36.859375 35.210938 C 36.796875 35.703125 36.667969 36.179688 36.46875 36.632812 C 36.269531 37.089844 36.011719 37.507812 35.691406 37.890625 L 16.734375 60.714844 Z M 0.542969 26.460938 " fill-opacity="1" fill-rule="nonzero"/></g></g></g></g><g mask="url(#d02f76eb8e)"><g transform="matrix(1, 0, 0, 1, 199, 67)"><g clip-path="url(#511ab2365e)"><g clip-path="url(#df561f301c)"><path fill="#00bf63" d="M 31.542969 26.460938 L 52.628906 1.078125 L 5.140625 1.078125 C 4.859375 1.078125 4.585938 1.105469 4.3125 1.15625 C 4.039062 1.210938 3.773438 1.292969 3.511719 1.398438 C 3.253906 1.503906 3.011719 1.632812 2.777344 1.789062 C 2.542969 1.941406 2.328125 2.117188 2.128906 2.3125 C 1.933594 2.507812 1.753906 2.722656 1.597656 2.953125 C 1.441406 3.183594 1.308594 3.429688 1.199219 3.6875 C 1.089844 3.941406 1.007812 4.207031 0.949219 4.480469 C 0.894531 4.753906 0.863281 5.03125 0.859375 5.308594 L 0.59375 26.460938 Z M 31.542969 26.460938 " fill-opacity="1" fill-rule="nonzero"/></g></g></g></g><g mask="url(#88a88229f7)"><g transform="matrix(1, 0, 0, 1, 136, 67)"><g clip-path="url(#8f8ea6b83f)"><g clip-path="url(#e08318aa61)"><path fill="#00bf63" d="M 55.34375 26.460938 L 55.613281 5.40625 C 55.617188 5.121094 55.59375 4.839844 55.539062 4.5625 C 55.488281 4.28125 55.410156 4.011719 55.304688 3.75 C 55.195312 3.484375 55.066406 3.234375 54.910156 3 C 54.753906 2.761719 54.578125 2.542969 54.378906 2.339844 C 54.179688 2.136719 53.960938 1.957031 53.726562 1.800781 C 53.492188 1.640625 53.246094 1.507812 52.984375 1.398438 C 52.722656 1.289062 52.453125 1.207031 52.171875 1.148438 C 51.894531 1.09375 51.613281 1.066406 51.332031 1.066406 L 0.351562 1.066406 L 21.4375 26.449219 Z M 55.34375 26.460938 " fill-opacity="1" fill-rule="nonzero"/></g></g></g></g><g mask="url(#24fd88f2e9)"><g transform="matrix(1, 0, 0, 1, 250, 113)"><g clip-path="url(#bfd67e3463)"><g clip-path="url(#d03a52f288)"><path fill="#00bf63" d="M 14.867188 53.082031 L 0.632812 22.960938 L 18.109375 1.90625 C 18.300781 1.671875 18.519531 1.46875 18.761719 1.289062 C 19.007812 1.109375 19.269531 0.964844 19.546875 0.855469 C 19.828125 0.742188 20.117188 0.667969 20.417969 0.628906 C 20.714844 0.59375 21.015625 0.59375 21.3125 0.628906 C 21.613281 0.667969 21.902344 0.742188 22.183594 0.855469 C 22.464844 0.964844 22.726562 1.109375 22.96875 1.285156 C 23.210938 1.464844 23.429688 1.667969 23.621094 1.902344 C 23.8125 2.136719 23.972656 2.390625 24.101562 2.660156 L 34.515625 24.703125 C 34.726562 25.152344 34.871094 25.621094 34.949219 26.113281 C 35.027344 26.605469 35.035156 27.097656 34.972656 27.589844 C 34.910156 28.082031 34.777344 28.558594 34.578125 29.011719 C 34.378906 29.46875 34.121094 29.886719 33.800781 30.269531 Z M 14.867188 53.082031 " fill-opacity="1" fill-rule="nonzero"/></g></g></g></g><g mask="url(#a4cebc0beb)"><g transform="matrix(1, 0, 0, 1, 84, 151)"><g clip-path="url(#7fe4f1dbec)"><g clip-path="url(#14e851dbc0)"><path fill="#00bf63" d="M 20.980469 53.460938 L 35.214844 23.335938 L 17.738281 2.28125 C 17.546875 2.046875 17.328125 1.84375 17.085938 1.664062 C 16.839844 1.488281 16.578125 1.34375 16.300781 1.230469 C 16.019531 1.121094 15.730469 1.046875 15.433594 1.007812 C 15.132812 0.96875 14.835938 0.96875 14.535156 1.007812 C 14.238281 1.046875 13.949219 1.121094 13.667969 1.230469 C 13.386719 1.339844 13.125 1.484375 12.882812 1.664062 C 12.640625 1.839844 12.421875 2.046875 12.230469 2.277344 C 12.039062 2.511719 11.878906 2.761719 11.75 3.035156 L 1.320312 25.074219 C 1.109375 25.523438 0.964844 25.992188 0.886719 26.484375 C 0.8125 26.976562 0.804688 27.46875 0.867188 27.960938 C 0.929688 28.453125 1.0625 28.929688 1.257812 29.382812 C 1.457031 29.839844 1.714844 30.257812 2.035156 30.640625 Z M 20.980469 53.460938 " fill-opacity="1" fill-rule="nonzero"/></g></g></g></g><g mask="url(#443bf51eb2)"><g transform="matrix(1, 0, 0, 1, 48, 228)"><g clip-path="url(#68af1dbdfb)"><g clip-path="url(#6c98a56381)"><path fill="#00bf63" d="M 20.707031 53.214844 L 34.945312 23.089844 L 17.464844 2.03125 C 17.273438 1.800781 17.058594 1.59375 16.8125 1.417969 C 16.570312 1.238281 16.308594 1.09375 16.027344 0.980469 C 15.75 0.871094 15.457031 0.796875 15.160156 0.757812 C 14.859375 0.71875 14.5625 0.71875 14.261719 0.757812 C 13.964844 0.792969 13.671875 0.871094 13.394531 0.980469 C 13.113281 1.09375 12.851562 1.238281 12.609375 1.414062 C 12.363281 1.589844 12.148438 1.796875 11.953125 2.03125 C 11.761719 2.261719 11.605469 2.515625 11.476562 2.789062 L 1.292969 24.34375 C 1.046875 24.867188 0.878906 25.414062 0.785156 25.980469 C 0.695312 26.550781 0.6875 27.125 0.757812 27.695312 C 0.832031 28.269531 0.980469 28.820312 1.210938 29.351562 C 1.441406 29.878906 1.742188 30.367188 2.109375 30.8125 Z M 20.707031 53.214844 " fill-opacity="1" fill-rule="nonzero"/></g></g></g></g><g mask="url(#45226f3f73)"><g transform="matrix(1, 0, 0, 1, 66, 190)"><g clip-path="url(#7aa7d93c49)"><g clip-path="url(#a5e5113dd6)"><path fill="#00bf63" d="M 20.84375 52.839844 L 35.085938 22.710938 L 17.605469 1.65625 C 17.414062 1.421875 17.195312 1.214844 16.953125 1.039062 C 16.710938 0.863281 16.449219 0.71875 16.167969 0.605469 C 15.886719 0.496094 15.597656 0.421875 15.300781 0.382812 C 15 0.34375 14.703125 0.34375 14.402344 0.382812 C 14.105469 0.417969 13.816406 0.492188 13.535156 0.605469 C 13.253906 0.714844 12.992188 0.859375 12.75 1.039062 C 12.507812 1.214844 12.289062 1.421875 12.097656 1.652344 C 11.90625 1.886719 11.746094 2.136719 11.621094 2.410156 L 1.199219 24.453125 C 0.988281 24.90625 0.84375 25.375 0.765625 25.867188 C 0.6875 26.359375 0.679688 26.851562 0.742188 27.34375 C 0.808594 27.835938 0.9375 28.308594 1.136719 28.765625 C 1.335938 29.222656 1.59375 29.640625 1.914062 30.023438 Z M 20.84375 52.839844 " fill-opacity="1" fill-rule="nonzero"/></g></g></g></g><g mask="url(#34a7046fe5)"><g transform="matrix(1, 0, 0, 1, 120, 67)"><g clip-path="url(#59bb803f35)"><g clip-path="url(#7e7890fe1f)"><path fill="#00bf63" d="M 37.4375 26.460938 L 16.351562 1.078125 L 1.578125 32.320312 C 1.367188 32.769531 1.222656 33.242188 1.144531 33.734375 C 1.066406 34.222656 1.058594 34.71875 1.121094 35.210938 C 1.1875 35.703125 1.316406 36.179688 1.515625 36.632812 C 1.714844 37.089844 1.972656 37.507812 2.292969 37.890625 L 21.246094 60.714844 Z M 37.4375 26.460938 " fill-opacity="1" fill-rule="nonzero"/></g></g></g></g><g mask="url(#1705ecd465)"><g transform="matrix(1, 0, 0, 1, 102, 113)"><g clip-path="url(#0398f82056)"><g clip-path="url(#a2d8f7e0c6)"><path fill="#00bf63" d="M 21.113281 53.082031 L 35.351562 22.953125 L 17.871094 1.898438 C 17.679688 1.664062 17.464844 1.460938 17.21875 1.28125 C 16.976562 1.105469 16.714844 0.960938 16.433594 0.847656 C 16.15625 0.734375 15.867188 0.660156 15.566406 0.625 C 15.265625 0.585938 14.96875 0.585938 14.667969 0.621094 C 14.371094 0.660156 14.082031 0.734375 13.800781 0.847656 C 13.519531 0.957031 13.257812 1.101562 13.015625 1.28125 C 12.769531 1.457031 12.554688 1.664062 12.363281 1.894531 C 12.171875 2.128906 12.011719 2.382812 11.882812 2.65625 L 1.46875 24.695312 C 1.253906 25.144531 1.109375 25.617188 1.03125 26.105469 C 0.957031 26.597656 0.949219 27.089844 1.011719 27.582031 C 1.074219 28.078125 1.207031 28.550781 1.40625 29.007812 C 1.601562 29.460938 1.863281 29.878906 2.179688 30.261719 Z M 21.113281 53.082031 " fill-opacity="1" fill-rule="nonzero"/></g></g></g></g><path fill="#ffffff" d="M 259.628906 79.152344 L 256.882812 79.152344 L 253.445312 71.882812 C 253.175781 71.316406 252.832031 70.792969 252.417969 70.324219 C 252 69.851562 251.527344 69.445312 250.992188 69.109375 C 250.460938 68.773438 249.894531 68.515625 249.289062 68.339844 C 248.683594 68.164062 248.066406 68.078125 247.4375 68.078125 L 241.296875 68.078125 L 241.296875 65.167969 L 259.628906 65.167969 Z M 259.628906 79.152344 " fill-opacity="1" fill-rule="nonzero"/><path fill="#ffffff" d="M 332.828125 270.136719 L 328.472656 270.136719 L 322.230469 277.632812 C 321.296875 278.761719 320.164062 279.640625 318.835938 280.261719 C 317.507812 280.886719 316.113281 281.199219 314.644531 281.199219 L 311.039062 281.199219 L 311.039062 284.109375 L 321.9375 284.109375 Z M 332.828125 270.136719 " fill-opacity="1" fill-rule="nonzero"/><path fill="#ffffff" d="M 55.152344 270.136719 L 59.507812 270.136719 L 65.75 277.632812 C 66.6875 278.761719 67.820312 279.640625 69.148438 280.261719 C 70.472656 280.886719 71.871094 281.199219 73.339844 281.199219 L 76.945312 281.199219 L 76.945312 284.109375 L 66.046875 284.109375 Z M 55.152344 270.136719 " fill-opacity="1" fill-rule="nonzero"/><path fill="#ffffff" d="M 128.375 79.152344 L 131.121094 79.152344 L 134.554688 71.882812 C 134.824219 71.316406 135.167969 70.792969 135.585938 70.324219 C 136 69.851562 136.476562 69.445312 137.007812 69.109375 C 137.539062 68.773438 138.105469 68.515625 138.710938 68.339844 C 139.316406 68.164062 139.933594 68.078125 140.5625 68.078125 L 146.6875 68.078125 L 146.6875 65.167969 L 128.375 65.167969 Z M 128.375 79.152344 " fill-opacity="1" fill-rule="nonzero"/></svg>