<svg xmlns="http://www.w3.org/2000/svg" xmlns:xlink="http://www.w3.org/1999/xlink" width="500" zoomAndPan="magnify" viewBox="0 0 375 374.999991" height="500" preserveAspectRatio="xMidYMid meet" version="1.0"><defs><clipPath id="c826f1476b"><path d="M 58.261719 60 L 304 60 L 304 305.878906 L 58.261719 305.878906 Z M 58.261719 60 " clip-rule="nonzero"/></clipPath></defs><g clip-path="url(#c826f1476b)"><path fill="#00bf63" d="M 295.269531 170.621094 C 295.269531 179.640625 287.941406 186.964844 278.925781 186.964844 L 258.492188 186.964844 C 256.242188 186.964844 254.40625 188.800781 254.40625 191.054688 L 254.40625 198.84375 C 254.40625 198.9375 254.40625 199.113281 253.925781 199.113281 L 238.171875 183.167969 C 238.042969 183.039062 238.042969 182.71875 238.140625 182.609375 L 254.183594 166.566406 C 254.40625 166.644531 254.40625 166.820312 254.40625 166.917969 L 254.40625 174.707031 C 254.40625 176.957031 256.242188 178.792969 258.492188 178.792969 L 278.925781 178.792969 C 283.425781 178.792969 287.097656 175.121094 287.097656 170.621094 L 287.097656 109.324219 C 287.097656 104.824219 283.425781 101.152344 278.925781 101.152344 L 238.0625 101.152344 L 238.0625 92.980469 L 278.925781 92.980469 C 287.941406 92.980469 295.269531 100.304688 295.269531 109.324219 Z M 229.886719 199.226562 C 229.886719 205.992188 224.398438 211.484375 217.628906 211.484375 L 144.074219 211.484375 C 137.304688 211.484375 131.816406 205.992188 131.816406 199.226562 L 131.816406 166.535156 C 131.816406 159.765625 137.304688 154.277344 144.074219 154.277344 L 217.628906 154.277344 C 224.398438 154.277344 229.886719 159.765625 229.886719 166.535156 Z M 82.777344 186.964844 C 78.277344 186.964844 74.605469 190.636719 74.605469 195.140625 L 74.605469 256.433594 C 74.605469 260.9375 78.277344 264.609375 82.777344 264.609375 L 103.210938 264.609375 C 105.460938 264.609375 107.296875 262.773438 107.296875 260.519531 L 107.296875 252.730469 C 107.296875 252.636719 107.296875 252.460938 107.777344 252.460938 L 123.53125 268.40625 C 123.65625 268.535156 123.65625 268.855469 123.5625 268.964844 L 107.519531 285.007812 C 107.296875 284.929688 107.296875 284.753906 107.296875 284.65625 L 107.296875 276.867188 C 107.296875 274.617188 105.460938 272.78125 103.210938 272.78125 L 82.777344 272.78125 C 73.757812 272.78125 66.433594 265.453125 66.433594 256.433594 L 66.433594 195.140625 C 66.433594 186.121094 73.757812 178.792969 82.777344 178.792969 L 123.640625 178.792969 L 123.640625 186.964844 Z M 131.816406 252.347656 C 131.816406 245.582031 137.304688 240.089844 144.074219 240.089844 L 217.628906 240.089844 C 224.398438 240.089844 229.886719 245.582031 229.886719 252.347656 L 229.886719 285.039062 C 229.886719 291.808594 224.398438 297.296875 217.628906 297.296875 L 144.074219 297.296875 C 137.304688 297.296875 131.816406 291.808594 131.816406 285.039062 Z M 274.839844 264.609375 C 277.089844 264.609375 278.925781 262.773438 278.925781 260.519531 L 278.925781 252.730469 C 278.925781 252.636719 278.925781 252.460938 279.402344 252.460938 L 295.160156 268.40625 C 295.285156 268.535156 295.285156 268.855469 295.191406 268.964844 L 279.148438 285.007812 C 278.925781 284.929688 278.925781 284.753906 278.925781 284.65625 L 278.925781 276.867188 C 278.925781 274.617188 277.089844 272.78125 274.839844 272.78125 L 238.0625 272.78125 L 238.0625 264.609375 Z M 229.886719 113.410156 C 229.886719 120.179688 224.398438 125.671875 217.628906 125.671875 L 144.074219 125.671875 C 137.304688 125.671875 131.816406 120.179688 131.816406 113.410156 L 131.816406 80.71875 C 131.816406 73.953125 137.304688 68.460938 144.074219 68.460938 L 217.628906 68.460938 C 224.398438 68.460938 229.886719 73.953125 229.886719 80.71875 Z M 123.5625 97.335938 L 107.519531 113.378906 C 107.296875 113.300781 107.296875 113.125 107.296875 113.027344 L 107.296875 105.238281 C 107.296875 102.988281 105.460938 101.152344 103.210938 101.152344 L 70.519531 101.152344 C 68.269531 101.152344 66.433594 99.316406 66.433594 97.066406 C 66.433594 94.816406 68.269531 92.980469 70.519531 92.980469 L 103.210938 92.980469 C 105.460938 92.980469 107.296875 91.144531 107.296875 88.894531 L 107.296875 81.105469 C 107.296875 81.007812 107.296875 80.832031 107.777344 80.832031 L 123.53125 96.777344 C 123.65625 96.90625 123.65625 97.226562 123.5625 97.335938 Z M 278.925781 84.808594 L 238.0625 84.808594 L 238.0625 80.71875 C 238.0625 69.449219 228.898438 60.289062 217.628906 60.289062 L 144.074219 60.289062 C 132.804688 60.289062 123.640625 69.449219 123.640625 80.71875 L 123.640625 85.253906 L 113.617188 75.117188 C 111.222656 72.644531 107.632812 71.878906 104.4375 73.171875 C 101.214844 74.480469 99.125 77.59375 99.125 81.105469 L 99.125 84.808594 L 70.519531 84.808594 C 63.75 84.808594 58.261719 90.296875 58.261719 97.066406 C 58.261719 103.835938 63.75 109.324219 70.519531 109.324219 L 99.125 109.324219 L 99.125 113.027344 C 99.125 116.539062 101.214844 119.652344 104.4375 120.960938 C 105.476562 121.375 106.546875 121.585938 107.617188 121.585938 C 109.835938 121.585938 112.003906 120.691406 113.585938 119.046875 L 123.640625 108.878906 L 123.640625 113.410156 C 123.640625 124.679688 132.804688 133.84375 144.074219 133.84375 L 217.628906 133.84375 C 228.898438 133.84375 238.0625 124.679688 238.0625 113.410156 L 238.0625 109.324219 L 278.925781 109.324219 L 278.925781 170.621094 L 262.578125 170.621094 L 262.578125 166.917969 C 262.578125 163.40625 260.488281 160.292969 257.261719 158.984375 C 254.070312 157.707031 250.464844 158.457031 248.117188 160.898438 L 238.0625 171.066406 L 238.0625 166.535156 C 238.0625 155.265625 228.898438 146.101562 217.628906 146.101562 L 144.074219 146.101562 C 132.804688 146.101562 123.640625 155.265625 123.640625 166.535156 L 123.640625 170.621094 L 82.777344 170.621094 C 69.257812 170.621094 58.261719 181.617188 58.261719 195.140625 L 58.261719 256.433594 C 58.261719 269.953125 69.257812 280.953125 82.777344 280.953125 L 99.125 280.953125 L 99.125 284.65625 C 99.125 288.167969 101.214844 291.28125 104.4375 292.589844 C 105.476562 293.003906 106.546875 293.210938 107.617188 293.210938 C 109.835938 293.210938 112.003906 292.320312 113.585938 290.675781 L 123.640625 280.507812 L 123.640625 285.039062 C 123.640625 296.308594 132.804688 305.472656 144.074219 305.472656 L 217.628906 305.472656 C 228.898438 305.472656 238.0625 296.308594 238.0625 285.039062 L 238.0625 280.953125 L 270.75 280.953125 L 270.75 284.65625 C 270.75 288.167969 272.84375 291.28125 276.066406 292.589844 C 277.105469 293.003906 278.175781 293.210938 279.242188 293.210938 C 281.460938 293.210938 283.632812 292.320312 285.214844 290.675781 L 301.015625 274.695312 C 304.242188 271.375 304.242188 266.011719 301 262.675781 L 285.246094 246.746094 C 282.867188 244.273438 279.261719 243.503906 276.066406 244.796875 C 272.84375 246.105469 270.75 249.21875 270.75 252.730469 L 270.75 256.433594 L 238.0625 256.433594 L 238.0625 252.347656 C 238.0625 241.078125 228.898438 231.917969 217.628906 231.917969 L 144.074219 231.917969 C 132.804688 231.917969 123.640625 241.078125 123.640625 252.347656 L 123.640625 256.882812 L 113.617188 246.746094 C 111.222656 244.273438 107.632812 243.503906 104.4375 244.796875 C 101.214844 246.105469 99.125 249.21875 99.125 252.730469 L 99.125 256.433594 L 82.777344 256.433594 L 82.777344 195.140625 L 123.640625 195.140625 L 123.640625 199.226562 C 123.640625 210.496094 132.804688 219.65625 144.074219 219.65625 L 217.628906 219.65625 C 228.898438 219.65625 238.0625 210.496094 238.0625 199.226562 L 238.0625 194.691406 L 248.085938 204.828125 C 249.699219 206.503906 251.867188 207.398438 254.085938 207.398438 C 255.15625 207.398438 256.226562 207.191406 257.261719 206.777344 C 260.488281 205.46875 262.578125 202.355469 262.578125 198.84375 L 262.578125 195.140625 L 278.925781 195.140625 C 292.445312 195.140625 303.441406 184.140625 303.441406 170.621094 L 303.441406 109.324219 C 303.441406 95.804688 292.445312 84.808594 278.925781 84.808594 " fill-opacity="1" fill-rule="nonzero"/></g><path fill="#00bf63" d="M 209.457031 84.808594 L 152.246094 84.808594 C 149.996094 84.808594 148.160156 86.644531 148.160156 88.894531 C 148.160156 91.144531 149.996094 92.980469 152.246094 92.980469 L 209.457031 92.980469 C 211.707031 92.980469 213.542969 91.144531 213.542969 88.894531 C 213.542969 86.644531 211.707031 84.808594 209.457031 84.808594 " fill-opacity="1" fill-rule="nonzero"/><path fill="#00bf63" d="M 193.109375 101.152344 L 168.59375 101.152344 C 166.339844 101.152344 164.507812 102.988281 164.507812 105.238281 C 164.507812 107.488281 166.339844 109.324219 168.59375 109.324219 L 193.109375 109.324219 C 195.363281 109.324219 197.195312 107.488281 197.195312 105.238281 C 197.195312 102.988281 195.363281 101.152344 193.109375 101.152344 " fill-opacity="1" fill-rule="nonzero"/><path fill="#00bf63" d="M 209.457031 170.621094 L 152.246094 170.621094 C 149.996094 170.621094 148.160156 172.457031 148.160156 174.707031 C 148.160156 176.957031 149.996094 178.792969 152.246094 178.792969 L 209.457031 178.792969 C 211.707031 178.792969 213.542969 176.957031 213.542969 174.707031 C 213.542969 172.457031 211.707031 170.621094 209.457031 170.621094 " fill-opacity="1" fill-rule="nonzero"/><path fill="#00bf63" d="M 193.109375 186.964844 L 168.59375 186.964844 C 166.339844 186.964844 164.507812 188.800781 164.507812 191.054688 C 164.507812 193.304688 166.339844 195.140625 168.59375 195.140625 L 193.109375 195.140625 C 195.363281 195.140625 197.195312 193.304688 197.195312 191.054688 C 197.195312 188.800781 195.363281 186.964844 193.109375 186.964844 " fill-opacity="1" fill-rule="nonzero"/><path fill="#00bf63" d="M 152.246094 264.609375 L 209.457031 264.609375 C 211.707031 264.609375 213.542969 262.773438 213.542969 260.519531 C 213.542969 258.269531 211.707031 256.433594 209.457031 256.433594 L 152.246094 256.433594 C 149.996094 256.433594 148.160156 258.269531 148.160156 260.519531 C 148.160156 262.773438 149.996094 264.609375 152.246094 264.609375 " fill-opacity="1" fill-rule="nonzero"/><path fill="#00bf63" d="M 193.109375 272.78125 L 168.59375 272.78125 C 166.339844 272.78125 164.507812 274.617188 164.507812 276.867188 C 164.507812 279.117188 166.339844 280.953125 168.59375 280.953125 L 193.109375 280.953125 C 195.363281 280.953125 197.195312 279.117188 197.195312 276.867188 C 197.195312 274.617188 195.363281 272.78125 193.109375 272.78125 " fill-opacity="1" fill-rule="nonzero"/></svg>