<svg xmlns="http://www.w3.org/2000/svg" xmlns:xlink="http://www.w3.org/1999/xlink" width="500" zoomAndPan="magnify" viewBox="0 0 375 374.999991" height="500" preserveAspectRatio="xMidYMid meet" version="1.0"><defs><g/></defs><g fill="#05a457" fill-opacity="1"><g transform="translate(3.814068, 198.629091)"><g><path d="M 14.78125 0.484375 C 12.457031 0.484375 10.367188 0.0625 8.515625 -0.78125 C 6.671875 -1.625 5.210938 -2.769531 4.140625 -4.21875 C 3.066406 -5.664062 2.492188 -7.289062 2.421875 -9.09375 L 8.765625 -9.09375 C 8.867188 -7.832031 9.46875 -6.78125 10.5625 -5.9375 C 11.65625 -5.09375 13.023438 -4.671875 14.671875 -4.671875 C 16.398438 -4.671875 17.738281 -5.003906 18.6875 -5.671875 C 19.632812 -6.335938 20.109375 -7.1875 20.109375 -8.21875 C 20.109375 -9.332031 19.578125 -10.15625 18.515625 -10.6875 C 17.460938 -11.226562 15.789062 -11.820312 13.5 -12.46875 C 11.269531 -13.082031 9.457031 -13.675781 8.0625 -14.25 C 6.664062 -14.820312 5.457031 -15.695312 4.4375 -16.875 C 3.414062 -18.0625 2.90625 -19.625 2.90625 -21.5625 C 2.90625 -23.132812 3.367188 -24.570312 4.296875 -25.875 C 5.234375 -27.1875 6.570312 -28.21875 8.3125 -28.96875 C 10.050781 -29.726562 12.046875 -30.109375 14.296875 -30.109375 C 17.671875 -30.109375 20.382812 -29.253906 22.4375 -27.546875 C 24.5 -25.847656 25.601562 -23.53125 25.75 -20.59375 L 19.625 -20.59375 C 19.519531 -21.914062 18.984375 -22.972656 18.015625 -23.765625 C 17.046875 -24.554688 15.738281 -24.953125 14.09375 -24.953125 C 12.476562 -24.953125 11.238281 -24.644531 10.375 -24.03125 C 9.519531 -23.425781 9.09375 -22.617188 9.09375 -21.609375 C 9.09375 -20.828125 9.378906 -20.164062 9.953125 -19.625 C 10.523438 -19.082031 11.222656 -18.660156 12.046875 -18.359375 C 12.867188 -18.054688 14.085938 -17.671875 15.703125 -17.203125 C 17.847656 -16.628906 19.609375 -16.046875 20.984375 -15.453125 C 22.367188 -14.867188 23.5625 -14 24.5625 -12.84375 C 25.570312 -11.695312 26.09375 -10.175781 26.125 -8.28125 C 26.125 -6.59375 25.65625 -5.085938 24.71875 -3.765625 C 23.789062 -2.441406 22.472656 -1.398438 20.765625 -0.640625 C 19.066406 0.109375 17.070312 0.484375 14.78125 0.484375 Z M 14.78125 0.484375 "/></g></g></g><g fill="#05a457" fill-opacity="1"><g transform="translate(33.870257, 198.629091)"><g><path d="M 10.15625 -25.265625 C 11.195312 -26.628906 12.613281 -27.773438 14.40625 -28.703125 C 16.195312 -29.640625 18.222656 -30.109375 20.484375 -30.109375 C 23.066406 -30.109375 25.421875 -29.472656 27.546875 -28.203125 C 29.679688 -26.929688 31.359375 -25.144531 32.578125 -22.84375 C 33.796875 -20.550781 34.40625 -17.921875 34.40625 -14.953125 C 34.40625 -11.972656 33.796875 -9.304688 32.578125 -6.953125 C 31.359375 -4.609375 29.679688 -2.78125 27.546875 -1.46875 C 25.421875 -0.164062 23.066406 0.484375 20.484375 0.484375 C 18.222656 0.484375 16.210938 0.0234375 14.453125 -0.890625 C 12.703125 -1.804688 11.269531 -2.941406 10.15625 -4.296875 L 10.15625 14.09375 L 4.03125 14.09375 L 4.03125 -29.625 L 10.15625 -29.625 Z M 28.171875 -14.953125 C 28.171875 -16.992188 27.75 -18.753906 26.90625 -20.234375 C 26.0625 -21.722656 24.945312 -22.851562 23.5625 -23.625 C 22.1875 -24.394531 20.710938 -24.78125 19.140625 -24.78125 C 17.597656 -24.78125 16.132812 -24.382812 14.75 -23.59375 C 13.375 -22.8125 12.265625 -21.664062 11.421875 -20.15625 C 10.578125 -18.65625 10.15625 -16.882812 10.15625 -14.84375 C 10.15625 -12.800781 10.578125 -11.015625 11.421875 -9.484375 C 12.265625 -7.960938 13.375 -6.804688 14.75 -6.015625 C 16.132812 -5.234375 17.597656 -4.84375 19.140625 -4.84375 C 20.710938 -4.84375 22.1875 -5.242188 23.5625 -6.046875 C 24.945312 -6.859375 26.0625 -8.03125 26.90625 -9.5625 C 27.75 -11.101562 28.171875 -12.898438 28.171875 -14.953125 Z M 28.171875 -14.953125 "/></g></g></g><g fill="#05a457" fill-opacity="1"><g transform="translate(71.668947, 198.629091)"><g><path d="M 10.15625 -25.328125 C 11.050781 -26.828125 12.242188 -28 13.734375 -28.84375 C 15.222656 -29.6875 16.988281 -30.109375 19.03125 -30.109375 L 19.03125 -23.765625 L 17.46875 -23.765625 C 15.070312 -23.765625 13.253906 -23.15625 12.015625 -21.9375 C 10.773438 -20.71875 10.15625 -18.601562 10.15625 -15.59375 L 10.15625 0 L 4.03125 0 L 4.03125 -29.625 L 10.15625 -29.625 Z M 10.15625 -25.328125 "/></g></g></g><g fill="#05a457" fill-opacity="1"><g transform="translate(93.66001, 198.629091)"><g><path d="M 7.15625 -33.546875 C 6.039062 -33.546875 5.101562 -33.921875 4.34375 -34.671875 C 3.59375 -35.429688 3.21875 -36.363281 3.21875 -37.46875 C 3.21875 -38.582031 3.59375 -39.515625 4.34375 -40.265625 C 5.101562 -41.023438 6.039062 -41.40625 7.15625 -41.40625 C 8.226562 -41.40625 9.140625 -41.023438 9.890625 -40.265625 C 10.640625 -39.515625 11.015625 -38.582031 11.015625 -37.46875 C 11.015625 -36.363281 10.640625 -35.429688 9.890625 -34.671875 C 9.140625 -33.921875 8.226562 -33.546875 7.15625 -33.546875 Z M 10.15625 -29.625 L 10.15625 0 L 4.03125 0 L 4.03125 -29.625 Z M 10.15625 -29.625 "/></g></g></g><g fill="#05a457" fill-opacity="1"><g transform="translate(109.198984, 198.629091)"><g><path d="M 18.984375 -30.109375 C 21.304688 -30.109375 23.390625 -29.625 25.234375 -28.65625 C 27.085938 -27.6875 28.53125 -26.25 29.5625 -24.34375 C 30.601562 -22.445312 31.125 -20.15625 31.125 -17.46875 L 31.125 0 L 25.0625 0 L 25.0625 -16.5625 C 25.0625 -19.207031 24.394531 -21.238281 23.0625 -22.65625 C 21.738281 -24.070312 19.929688 -24.78125 17.640625 -24.78125 C 15.335938 -24.78125 13.515625 -24.070312 12.171875 -22.65625 C 10.828125 -21.238281 10.15625 -19.207031 10.15625 -16.5625 L 10.15625 0 L 4.03125 0 L 4.03125 -29.625 L 10.15625 -29.625 L 10.15625 -26.234375 C 11.164062 -27.453125 12.445312 -28.398438 14 -29.078125 C 15.5625 -29.765625 17.222656 -30.109375 18.984375 -30.109375 Z M 18.984375 -30.109375 "/></g></g></g><g fill="#05a457" fill-opacity="1"><g transform="translate(145.438427, 198.629091)"><g><path d="M 15.96875 -30.109375 C 18.257812 -30.109375 20.289062 -29.648438 22.0625 -28.734375 C 23.84375 -27.816406 25.234375 -26.679688 26.234375 -25.328125 L 26.234375 -29.625 L 32.421875 -29.625 L 32.421875 0.484375 C 32.421875 3.203125 31.847656 5.628906 30.703125 7.765625 C 29.554688 9.898438 27.894531 11.578125 25.71875 12.796875 C 23.550781 14.015625 20.960938 14.625 17.953125 14.625 C 13.941406 14.625 10.609375 13.679688 7.953125 11.796875 C 5.304688 9.921875 3.800781 7.367188 3.4375 4.140625 L 9.515625 4.140625 C 9.984375 5.679688 10.976562 6.925781 12.5 7.875 C 14.019531 8.820312 15.835938 9.296875 17.953125 9.296875 C 20.429688 9.296875 22.429688 8.539062 23.953125 7.03125 C 25.472656 5.53125 26.234375 3.347656 26.234375 0.484375 L 26.234375 -4.46875 C 25.191406 -3.0625 23.785156 -1.882812 22.015625 -0.9375 C 20.242188 0.0078125 18.226562 0.484375 15.96875 0.484375 C 13.382812 0.484375 11.023438 -0.164062 8.890625 -1.46875 C 6.765625 -2.78125 5.082031 -4.609375 3.84375 -6.953125 C 2.601562 -9.304688 1.984375 -11.972656 1.984375 -14.953125 C 1.984375 -17.921875 2.601562 -20.550781 3.84375 -22.84375 C 5.082031 -25.144531 6.765625 -26.929688 8.890625 -28.203125 C 11.023438 -29.472656 13.382812 -30.109375 15.96875 -30.109375 Z M 26.234375 -14.84375 C 26.234375 -16.882812 25.8125 -18.65625 24.96875 -20.15625 C 24.125 -21.664062 23.019531 -22.8125 21.65625 -23.59375 C 20.300781 -24.382812 18.835938 -24.78125 17.265625 -24.78125 C 15.679688 -24.78125 14.207031 -24.394531 12.84375 -23.625 C 11.488281 -22.851562 10.390625 -21.722656 9.546875 -20.234375 C 8.703125 -18.753906 8.28125 -16.992188 8.28125 -14.953125 C 8.28125 -12.898438 8.703125 -11.101562 9.546875 -9.5625 C 10.390625 -8.03125 11.5 -6.859375 12.875 -6.046875 C 14.257812 -5.242188 15.722656 -4.84375 17.265625 -4.84375 C 18.835938 -4.84375 20.300781 -5.234375 21.65625 -6.015625 C 23.019531 -6.804688 24.125 -7.960938 24.96875 -9.484375 C 25.8125 -11.015625 26.234375 -12.800781 26.234375 -14.84375 Z M 26.234375 -14.84375 "/></g></g></g><g fill="#05a457" fill-opacity="1"><g transform="translate(183.237121, 198.629091)"><g/></g></g><g fill="#05a457" fill-opacity="1"><g transform="translate(198.561008, 198.629091)"><g><path d="M 33.875 -37.359375 L 33.875 0 L 27.75 0 L 27.75 -16.34375 L 10.15625 -16.34375 L 10.15625 0 L 4.03125 0 L 4.03125 -37.359375 L 10.15625 -37.359375 L 10.15625 -21.34375 L 27.75 -21.34375 L 27.75 -37.359375 Z M 33.875 -37.359375 "/></g></g></g><g fill="#05a457" fill-opacity="1"><g transform="translate(237.811416, 198.629091)"><g><path d="M 28.171875 -37.359375 L 28.171875 -32.359375 L 18.21875 -32.359375 L 18.21875 0 L 12.09375 0 L 12.09375 -32.359375 L 2.09375 -32.359375 L 2.09375 -37.359375 Z M 28.171875 -37.359375 "/></g></g></g><g fill="#05a457" fill-opacity="1"><g transform="translate(269.480611, 198.629091)"><g><path d="M 43.390625 -37.359375 L 43.390625 0 L 37.265625 0 L 37.265625 -25.59375 L 25.859375 0 L 21.609375 0 L 10.15625 -25.59375 L 10.15625 0 L 4.03125 0 L 4.03125 -37.359375 L 10.640625 -37.359375 L 23.765625 -8.0625 L 36.828125 -37.359375 Z M 43.390625 -37.359375 "/></g></g></g><g fill="#05a457" fill-opacity="1"><g transform="translate(318.247849, 198.629091)"><g><path d="M 10.15625 -4.953125 L 22.796875 -4.953125 L 22.796875 0 L 4.03125 0 L 4.03125 -37.359375 L 10.15625 -37.359375 Z M 10.15625 -4.953125 "/></g></g></g><g fill="#05a457" fill-opacity="1"><g transform="translate(214.44363, 221.056411)"><g><path d="M 16.421875 -13.4375 C 15.898438 -14.539062 15.140625 -15.394531 14.140625 -16 C 13.148438 -16.613281 11.992188 -16.921875 10.671875 -16.921875 C 9.347656 -16.921875 8.15625 -16.613281 7.09375 -16 C 6.039062 -15.394531 5.207031 -14.523438 4.59375 -13.390625 C 3.988281 -12.265625 3.6875 -10.960938 3.6875 -9.484375 C 3.6875 -7.992188 3.988281 -6.6875 4.59375 -5.5625 C 5.207031 -4.445312 6.039062 -3.582031 7.09375 -2.96875 C 8.15625 -2.363281 9.347656 -2.0625 10.671875 -2.0625 C 12.515625 -2.0625 14.035156 -2.613281 15.234375 -3.71875 C 16.429688 -4.820312 17.128906 -6.316406 17.328125 -8.203125 L 9.78125 -8.203125 L 9.78125 -10.203125 L 19.953125 -10.203125 L 19.953125 -8.3125 C 19.816406 -6.75 19.332031 -5.320312 18.5 -4.03125 C 17.664062 -2.738281 16.566406 -1.71875 15.203125 -0.96875 C 13.847656 -0.21875 12.335938 0.15625 10.671875 0.15625 C 8.910156 0.15625 7.304688 -0.253906 5.859375 -1.078125 C 4.410156 -1.898438 3.265625 -3.039062 2.421875 -4.5 C 1.585938 -5.96875 1.171875 -7.628906 1.171875 -9.484375 C 1.171875 -11.328125 1.585938 -12.984375 2.421875 -14.453125 C 3.265625 -15.929688 4.410156 -17.082031 5.859375 -17.90625 C 7.304688 -18.726562 8.910156 -19.140625 10.671875 -19.140625 C 12.679688 -19.140625 14.457031 -18.640625 16 -17.640625 C 17.550781 -16.648438 18.679688 -15.25 19.390625 -13.4375 Z M 16.421875 -13.4375 "/></g></g></g><g fill="#05a457" fill-opacity="1"><g transform="translate(231.977866, 221.056411)"><g><path d="M 15.671875 -8.015625 C 15.671875 -7.546875 15.644531 -7.046875 15.59375 -6.515625 L 3.6875 -6.515625 C 3.78125 -5.046875 4.285156 -3.898438 5.203125 -3.078125 C 6.117188 -2.253906 7.226562 -1.84375 8.53125 -1.84375 C 9.59375 -1.84375 10.484375 -2.09375 11.203125 -2.59375 C 11.921875 -3.09375 12.421875 -3.757812 12.703125 -4.59375 L 15.375 -4.59375 C 14.96875 -3.15625 14.164062 -1.988281 12.96875 -1.09375 C 11.78125 -0.195312 10.300781 0.25 8.53125 0.25 C 7.113281 0.25 5.847656 -0.0664062 4.734375 -0.703125 C 3.617188 -1.335938 2.742188 -2.238281 2.109375 -3.40625 C 1.484375 -4.570312 1.171875 -5.925781 1.171875 -7.46875 C 1.171875 -9.007812 1.476562 -10.359375 2.09375 -11.515625 C 2.707031 -12.671875 3.570312 -13.5625 4.6875 -14.1875 C 5.800781 -14.8125 7.082031 -15.125 8.53125 -15.125 C 9.9375 -15.125 11.179688 -14.816406 12.265625 -14.203125 C 13.359375 -13.585938 14.195312 -12.738281 14.78125 -11.65625 C 15.375 -10.582031 15.671875 -9.367188 15.671875 -8.015625 Z M 13.109375 -8.53125 C 13.109375 -9.46875 12.898438 -10.273438 12.484375 -10.953125 C 12.078125 -11.628906 11.515625 -12.144531 10.796875 -12.5 C 10.078125 -12.851562 9.285156 -13.03125 8.421875 -13.03125 C 7.171875 -13.03125 6.101562 -12.628906 5.21875 -11.828125 C 4.34375 -11.035156 3.84375 -9.9375 3.71875 -8.53125 Z M 13.109375 -8.53125 "/></g></g></g><g fill="#05a457" fill-opacity="1"><g transform="translate(245.223075, 221.056411)"><g><path d="M 9.34375 -15.15625 C 11.15625 -15.15625 12.617188 -14.609375 13.734375 -13.515625 C 14.859375 -12.421875 15.421875 -10.835938 15.421875 -8.765625 L 15.421875 0 L 12.984375 0 L 12.984375 -8.421875 C 12.984375 -9.898438 12.609375 -11.035156 11.859375 -11.828125 C 11.117188 -12.617188 10.109375 -13.015625 8.828125 -13.015625 C 7.523438 -13.015625 6.488281 -12.601562 5.71875 -11.78125 C 4.945312 -10.96875 4.5625 -9.785156 4.5625 -8.234375 L 4.5625 0 L 2.09375 0 L 2.09375 -14.875 L 4.5625 -14.875 L 4.5625 -12.765625 C 5.050781 -13.523438 5.71875 -14.113281 6.5625 -14.53125 C 7.40625 -14.945312 8.332031 -15.15625 9.34375 -15.15625 Z M 9.34375 -15.15625 "/></g></g></g><g fill="#05a457" fill-opacity="1"><g transform="translate(259.011213, 221.056411)"><g><path d="M 15.671875 -8.015625 C 15.671875 -7.546875 15.644531 -7.046875 15.59375 -6.515625 L 3.6875 -6.515625 C 3.78125 -5.046875 4.285156 -3.898438 5.203125 -3.078125 C 6.117188 -2.253906 7.226562 -1.84375 8.53125 -1.84375 C 9.59375 -1.84375 10.484375 -2.09375 11.203125 -2.59375 C 11.921875 -3.09375 12.421875 -3.757812 12.703125 -4.59375 L 15.375 -4.59375 C 14.96875 -3.15625 14.164062 -1.988281 12.96875 -1.09375 C 11.78125 -0.195312 10.300781 0.25 8.53125 0.25 C 7.113281 0.25 5.847656 -0.0664062 4.734375 -0.703125 C 3.617188 -1.335938 2.742188 -2.238281 2.109375 -3.40625 C 1.484375 -4.570312 1.171875 -5.925781 1.171875 -7.46875 C 1.171875 -9.007812 1.476562 -10.359375 2.09375 -11.515625 C 2.707031 -12.671875 3.570312 -13.5625 4.6875 -14.1875 C 5.800781 -14.8125 7.082031 -15.125 8.53125 -15.125 C 9.9375 -15.125 11.179688 -14.816406 12.265625 -14.203125 C 13.359375 -13.585938 14.195312 -12.738281 14.78125 -11.65625 C 15.375 -10.582031 15.671875 -9.367188 15.671875 -8.015625 Z M 13.109375 -8.53125 C 13.109375 -9.46875 12.898438 -10.273438 12.484375 -10.953125 C 12.078125 -11.628906 11.515625 -12.144531 10.796875 -12.5 C 10.078125 -12.851562 9.285156 -13.03125 8.421875 -13.03125 C 7.171875 -13.03125 6.101562 -12.628906 5.21875 -11.828125 C 4.34375 -11.035156 3.84375 -9.9375 3.71875 -8.53125 Z M 13.109375 -8.53125 "/></g></g></g><g fill="#05a457" fill-opacity="1"><g transform="translate(272.256422, 221.056411)"><g><path d="M 4.5625 -12.46875 C 5 -13.3125 5.617188 -13.96875 6.421875 -14.4375 C 7.222656 -14.914062 8.207031 -15.15625 9.375 -15.15625 L 9.375 -12.59375 L 8.71875 -12.59375 C 5.945312 -12.59375 4.5625 -11.09375 4.5625 -8.09375 L 4.5625 0 L 2.09375 0 L 2.09375 -14.875 L 4.5625 -14.875 Z M 4.5625 -12.46875 "/></g></g></g><g fill="#05a457" fill-opacity="1"><g transform="translate(278.796658, 221.056411)"><g><path d="M 1.171875 -7.5 C 1.171875 -9.019531 1.476562 -10.351562 2.09375 -11.5 C 2.707031 -12.644531 3.550781 -13.535156 4.625 -14.171875 C 5.707031 -14.804688 6.910156 -15.125 8.234375 -15.125 C 9.535156 -15.125 10.664062 -14.84375 11.625 -14.28125 C 12.582031 -13.71875 13.296875 -13.015625 13.765625 -12.171875 L 13.765625 -14.875 L 16.265625 -14.875 L 16.265625 0 L 13.765625 0 L 13.765625 -2.765625 C 13.273438 -1.898438 12.546875 -1.179688 11.578125 -0.609375 C 10.609375 -0.0351562 9.484375 0.25 8.203125 0.25 C 6.878906 0.25 5.679688 -0.0703125 4.609375 -0.71875 C 3.546875 -1.375 2.707031 -2.289062 2.09375 -3.46875 C 1.476562 -4.644531 1.171875 -5.988281 1.171875 -7.5 Z M 13.765625 -7.46875 C 13.765625 -8.59375 13.535156 -9.570312 13.078125 -10.40625 C 12.628906 -11.238281 12.019531 -11.875 11.25 -12.3125 C 10.488281 -12.757812 9.644531 -12.984375 8.71875 -12.984375 C 7.789062 -12.984375 6.945312 -12.765625 6.1875 -12.328125 C 5.425781 -11.890625 4.816406 -11.253906 4.359375 -10.421875 C 3.910156 -9.585938 3.6875 -8.613281 3.6875 -7.5 C 3.6875 -6.351562 3.910156 -5.359375 4.359375 -4.515625 C 4.816406 -3.679688 5.425781 -3.039062 6.1875 -2.59375 C 6.945312 -2.144531 7.789062 -1.921875 8.71875 -1.921875 C 9.644531 -1.921875 10.488281 -2.144531 11.25 -2.59375 C 12.019531 -3.039062 12.628906 -3.679688 13.078125 -4.515625 C 13.535156 -5.359375 13.765625 -6.34375 13.765625 -7.46875 Z M 13.765625 -7.46875 "/></g></g></g><g fill="#05a457" fill-opacity="1"><g transform="translate(293.562047, 221.056411)"><g><path d="M 5.109375 -12.84375 L 5.109375 -4.078125 C 5.109375 -3.347656 5.257812 -2.832031 5.5625 -2.53125 C 5.875 -2.238281 6.410156 -2.09375 7.171875 -2.09375 L 8.984375 -2.09375 L 8.984375 0 L 6.765625 0 C 5.390625 0 4.359375 -0.316406 3.671875 -0.953125 C 2.984375 -1.585938 2.640625 -2.628906 2.640625 -4.078125 L 2.640625 -12.84375 L 0.703125 -12.84375 L 0.703125 -14.875 L 2.640625 -14.875 L 2.640625 -18.625 L 5.109375 -18.625 L 5.109375 -14.875 L 8.984375 -14.875 L 8.984375 -12.84375 Z M 5.109375 -12.84375 "/></g></g></g><g fill="#05a457" fill-opacity="1"><g transform="translate(299.857954, 221.056411)"><g><path d="M 8.578125 0.25 C 7.179688 0.25 5.914062 -0.0664062 4.78125 -0.703125 C 3.65625 -1.335938 2.769531 -2.238281 2.125 -3.40625 C 1.488281 -4.570312 1.171875 -5.925781 1.171875 -7.46875 C 1.171875 -8.988281 1.5 -10.332031 2.15625 -11.5 C 2.820312 -12.664062 3.722656 -13.5625 4.859375 -14.1875 C 6.003906 -14.8125 7.28125 -15.125 8.6875 -15.125 C 10.101562 -15.125 11.378906 -14.8125 12.515625 -14.1875 C 13.660156 -13.5625 14.5625 -12.671875 15.21875 -11.515625 C 15.882812 -10.359375 16.21875 -9.007812 16.21875 -7.46875 C 16.21875 -5.925781 15.875 -4.570312 15.1875 -3.40625 C 14.507812 -2.238281 13.59375 -1.335938 12.4375 -0.703125 C 11.28125 -0.0664062 9.992188 0.25 8.578125 0.25 Z M 8.578125 -1.921875 C 9.460938 -1.921875 10.296875 -2.128906 11.078125 -2.546875 C 11.859375 -2.960938 12.488281 -3.585938 12.96875 -4.421875 C 13.445312 -5.253906 13.6875 -6.269531 13.6875 -7.46875 C 13.6875 -8.664062 13.453125 -9.679688 12.984375 -10.515625 C 12.515625 -11.347656 11.898438 -11.96875 11.140625 -12.375 C 10.378906 -12.78125 9.550781 -12.984375 8.65625 -12.984375 C 7.757812 -12.984375 6.929688 -12.78125 6.171875 -12.375 C 5.421875 -11.96875 4.816406 -11.347656 4.359375 -10.515625 C 3.910156 -9.679688 3.6875 -8.664062 3.6875 -7.46875 C 3.6875 -6.257812 3.910156 -5.238281 4.359375 -4.40625 C 4.804688 -3.570312 5.398438 -2.945312 6.140625 -2.53125 C 6.878906 -2.125 7.691406 -1.921875 8.578125 -1.921875 Z M 8.578125 -1.921875 "/></g></g></g><g fill="#05a457" fill-opacity="1"><g transform="translate(313.646092, 221.056411)"><g><path d="M 4.5625 -12.46875 C 5 -13.3125 5.617188 -13.96875 6.421875 -14.4375 C 7.222656 -14.914062 8.207031 -15.15625 9.375 -15.15625 L 9.375 -12.59375 L 8.71875 -12.59375 C 5.945312 -12.59375 4.5625 -11.09375 4.5625 -8.09375 L 4.5625 0 L 2.09375 0 L 2.09375 -14.875 L 4.5625 -14.875 Z M 4.5625 -12.46875 "/></g></g></g></svg>